<?xml version="1.0" standalone="no"?><!DOCTYPE svg PUBLIC "-//W3C//DTD SVG 1.1//EN" "http://www.w3.org/Graphics/SVG/1.1/DTD/svg11.dtd"><svg t="1624715352194" class="icon" viewBox="0 0 1024 1024" version="1.1" xmlns="http://www.w3.org/2000/svg" p-id="1503" xmlns:xlink="http://www.w3.org/1999/xlink" width="200" height="200"><defs><style type="text/css"></style></defs><path d="M513 916.3c-21.1 0-42.3-8-58.3-24.1L327.1 764.6h-87.5C161.5 764.6 98 701.1 98 623V277.6c0-92.2 75-167.2 167.2-167.2h534.9c70.5 0 127.8 57.3 127.8 127.8V623c0 78.1-63.5 141.6-141.6 141.6h-87.5L571.3 892.1c-16 16.1-37.2 24.2-58.3 24.2zM265.2 159.2c-65.3 0-118.4 53.1-118.4 118.4V623c0 51.2 41.6 92.8 92.8 92.8h97.6c6.5 0 12.7 2.6 17.3 7.2l134.7 134.7c12.7 12.7 34.9 12.7 47.7 0L671.6 723c4.6-4.6 10.8-7.2 17.3-7.2h97.6c51.2 0 92.8-41.6 92.8-92.8V238.2c0-43.6-35.4-79-79-79H265.2z" fill="#D6473B" p-id="1504"></path><path d="M708.3 393.6H298.2c-13.5 0-24.4-10.9-24.4-24.4s10.9-24.4 24.4-24.4h410.1c13.5 0 24.4 10.9 24.4 24.4s-10.9 24.4-24.4 24.4zM649.7 530.3H356.8c-13.5 0-24.4-10.9-24.4-24.4 0-13.5 10.9-24.4 24.4-24.4h292.9c13.5 0 24.4 10.9 24.4 24.4 0 13.5-10.9 24.4-24.4 24.4z" fill="#D6473B" opacity=".5" p-id="1505"></path></svg>