<?xml version="1.0" standalone="no"?><!DOCTYPE svg PUBLIC "-//W3C//DTD SVG 1.1//EN" "http://www.w3.org/Graphics/SVG/1.1/DTD/svg11.dtd"><svg t="1625842099186" class="icon" viewBox="0 0 1024 1024" version="1.1" xmlns="http://www.w3.org/2000/svg" p-id="2447" data-spm-anchor-id="a313x.7781069.0.i0" xmlns:xlink="http://www.w3.org/1999/xlink" width="200" height="200"><defs><style type="text/css"></style></defs><path d="M317.637215 1024a54.613333 54.613333 0 0 1-27.306667-7.585185 53.601975 53.601975 0 0 1-24.778271-60.681482l104.675555-384.316049-163.334321-3.034074a65.738272 65.738272 0 0 1-54.107654-28.318025 63.715556 63.715556 0 0 1-6.573827-60.175802l166.874074-423.759013A87.482469 87.482469 0 0 1 394.500425 0h279.134815a77.874568 77.874568 0 0 1 64.726913 34.386173 77.874568 77.874568 0 0 1 10.11358 72.817778L638.743388 389.37284l4.551111 6.573827h179.01037a60.175802 60.175802 0 0 1 55.624691 36.914568 60.681481 60.681481 0 0 1-13.147654 65.738271L355.563141 1007.818272a53.601975 53.601975 0 0 1-37.925926 16.181728zM222.56956 492.531358h145.129877a78.885926 78.885926 0 0 1 75.851852 101.135802l-82.931358 303.407408 423.759012-423.759012H643.294499a80.908642 80.908642 0 0 1-74.840494-111.249383l108.720988-282.168889L394.500425 75.851852a11.630617 11.630617 0 0 0-11.630618 8.090864z" fill="#d81e06" p-id="2448"></path></svg>